<svg data-v-7393e354="" xmlns="http://www.w3.org/2000/svg" width="26" height="18" viewBox="2 2 9 9" aria-labelledby="bankCards" role="presentation" class="dashboard_headerIcon_YC29_"><g data-v-7393e354="" fill="none"><path data-v-7393e354="" fill-rule="evenodd" clip-rule="evenodd" d="M2 3.5C2 3.22414 2.22414 3 2.5 3H11.5C11.7759 3 12 3.22414 12 3.5V4H2V3.5ZM2 5H12V9.5C12 9.77586 11.7759 10 11.5 10H2.5C2.22414 10 2 9.77586 2 9.5V5ZM2.5 2C1.67186 2 1 2.67186 1 3.5V9.5C1 10.3281 1.67186 11 2.5 11H3V12.5C3 13.3281 3.67186 14 4.5 14H13.5C14.3281 14 15 13.3281 15 12.5V6.5C15 5.67186 14.3281 5 13.5 5H13V3.5C13 2.67186 12.3281 2 11.5 2H2.5ZM13 8V9.5C13 10.3281 12.3281 11 11.5 11H4V12.5C4 12.7759 4.22414 13 4.5 13H13.5C13.7759 13 14 12.7759 14 12.5V8H13ZM13 7H14V6.5C14 6.22414 13.7759 6 13.5 6H13V7Z" fill="#343434"></path></g></svg>