<svg data-v-7393e354="" data-v-74d5a11b="" xmlns="http://www.w3.org/2000/svg" width="18" height="18" viewBox="0 0 18 16" aria-labelledby="copy" role="presentation"><g data-v-7393e354="" fill="none"><path data-v-7393e354="" fill-rule="evenodd" clip-rule="evenodd" d="M9.33317 0.666626H1.99984C1.2665 0.666626 0.666504 1.26663 0.666504 1.99996V10.6666C0.666504 11.0333 0.966504 11.3333 1.33317 11.3333C1.69984 11.3333 1.99984 11.0333 1.99984 10.6666V2.66663C1.99984 2.29996 2.29984 1.99996 2.6665 1.99996H9.33317C9.69984 1.99996 9.99984 1.69996 9.99984 1.33329C9.99984 0.966626 9.69984 0.666626 9.33317 0.666626ZM11.9998 3.33329H4.6665C3.93317 3.33329 3.33317 3.93329 3.33317 4.66663V14C3.33317 14.7333 3.93317 15.3333 4.6665 15.3333H11.9998C12.7332 15.3333 13.3332 14.7333 13.3332 14V4.66663C13.3332 3.93329 12.7332 3.33329 11.9998 3.33329ZM5.33317 14H11.3332C11.6998 14 11.9998 13.7 11.9998 13.3333V5.33329C11.9998 4.96663 11.6998 4.66663 11.3332 4.66663H5.33317C4.9665 4.66663 4.6665 4.96663 4.6665 5.33329V13.3333C4.6665 13.7 4.9665 14 5.33317 14Z" fill="#9DA9B8"></path></g></svg>