<svg data-v-7393e354="" xmlns="http://www.w3.org/2000/svg" width="16" height="16" viewBox="0 0 16 16" aria-labelledby="doubleCheck" role="presentation"><g data-v-7393e354="" fill="none"><path data-v-7393e354="" d="M11.5331 4.1999C11.2731 3.9399 10.8531 3.9399 10.5931 4.1999L6.83312 7.9599L7.77312 8.8999L11.5331 5.13323C11.7865 4.8799 11.7865 4.45323 11.5331 4.1999V4.1999ZM14.3598 4.19323L7.77312 10.7799L5.45312 8.46656C5.19312 8.20656 4.77312 8.20656 4.51312 8.46656C4.25312 8.72656 4.25312 9.14656 4.51312 9.40656L7.29979 12.1932C7.55979 12.4532 7.97979 12.4532 8.23979 12.1932L15.2998 5.1399C15.5598 4.8799 15.5598 4.4599 15.2998 4.1999H15.2931C15.0398 3.93323 14.6198 3.93323 14.3598 4.19323ZM0.746453 9.41323L3.53312 12.1999C3.79312 12.4599 4.21312 12.4599 4.47312 12.1999L4.93979 11.7332L1.68645 8.46656C1.42645 8.20656 1.00645 8.20656 0.746453 8.46656C0.486453 8.72656 0.486453 9.15323 0.746453 9.41323V9.41323Z" fill="#00BE65"></path></g></svg>