<svg data-v-7393e354="" xmlns="http://www.w3.org/2000/svg" width="16" height="16" viewBox="0 0 16 16" aria-labelledby="verify" role="presentation" data-original-title="null" class=" has-tooltip" aria-describedby="tooltip_3bszbepbzu"><g data-v-7393e354="" fill="none"><path data-v-7393e354="" d="M14.7574 8.65831C15.0871 8.28135 15.0871 7.71865 14.7574 7.34169L13.9889 6.4629C13.8086 6.25672 13.7207 5.98559 13.7459 5.71284L13.8528 4.55277C13.8988 4.05327 13.5676 3.59697 13.0785 3.48586L11.9468 3.22881C11.6785 3.16787 11.4472 2.99909 11.3073 2.7622L10.7138 1.7574C10.4581 1.32432 9.9204 1.14862 9.45824 1.34708L8.39441 1.8039C8.14248 1.91208 7.85719 1.91208 7.60527 1.8039L6.54032 1.3466C6.07863 1.14835 5.54153 1.32346 5.28541 1.75574L4.69326 2.75519C4.5528 2.99226 4.32074 3.16087 4.05186 3.2212L2.92377 3.47432C2.43344 3.58433 2.10092 4.04115 2.1469 4.54156L2.25403 5.70735C2.27903 5.97942 2.19162 6.24986 2.01213 6.45584L1.24004 7.34185C0.911475 7.71889 0.911973 8.28068 1.2412 8.65714L2.01087 9.53721C2.19113 9.74333 2.27899 10.0143 2.25393 10.287L2.14669 11.4541C2.10079 11.9535 2.43193 12.4097 2.92099 12.5208L4.05364 12.778C4.32146 12.8389 4.55247 13.0072 4.69247 13.2435L5.28429 14.2424C5.54089 14.6755 6.07942 14.8503 6.54148 14.6505L7.60434 14.191C7.85679 14.0818 8.14304 14.0815 8.39576 14.19L9.45935 14.6467C9.92104 14.845 10.4581 14.6699 10.7143 14.2376L11.3072 13.2368C11.4472 13.0005 11.6782 12.8322 11.946 12.7714L13.0785 12.5141C13.5676 12.403 13.8988 11.9467 13.8528 11.4472L13.7459 10.2872C13.7207 10.0144 13.8086 9.74328 13.9889 9.5371L14.7574 8.65831ZM6.25317 10.6733L4.6665 9.07333C4.4065 8.81333 4.4065 8.39333 4.6665 8.13333L4.71317 8.08667C4.97317 7.82667 5.39984 7.82667 5.65984 8.08667L6.02538 8.45448C6.41582 8.84734 7.0512 8.84802 7.44247 8.45599L10.1665 5.72667C10.4265 5.46667 10.8532 5.46667 11.1132 5.72667L11.1598 5.77333C11.4198 6.03333 11.4198 6.45333 11.1598 6.71333L7.21317 10.6733C6.93984 10.9333 6.51984 10.9333 6.25317 10.6733Z" fill="#007AFF"></path></g></svg>