<svg data-v-7393e354="" xmlns="http://www.w3.org/2000/svg" width="18" height="18" viewBox="0 0 15 18" aria-labelledby="remove" role="presentation"><g data-v-7393e354="" fill="none"><path data-v-7393e354="" d="M6.99609 1.5C6.17578 1.5 5.5 2.17578 5.5 2.99609V3.5H2.5V4.5H3.5V13C3.5 13.8242 4.17578 14.5 5 14.5H11C11.8242 14.5 12.5 13.8242 12.5 13V4.5H13.5V3.5H10.5V2.99609C10.5 2.17578 9.82422 1.5 9.00391 1.5H6.99609ZM6.99609 2.5H9.00391C9.28516 2.5 9.5 2.71484 9.5 2.99609V3.5H6.5V2.99609C6.5 2.71484 6.71484 2.5 6.99609 2.5ZM4.5 4.5H11.5V13C11.5 13.2812 11.2812 13.5 11 13.5H5C4.71875 13.5 4.5 13.2812 4.5 13V4.5ZM5.5 5.5V12.5H6.5V5.5H5.5ZM7.5 5.5V12.5H8.5V5.5H7.5ZM9.5 5.5V12.5H10.5V5.5H9.5Z" fill="#9DA9B8"></path></g></svg>