<svg data-v-7393e354="" xmlns="http://www.w3.org/2000/svg" width="18" height="24" viewBox="0 0 18 16" aria-labelledby="cardHeader" role="presentation"><g data-v-7393e354="" fill="none"><g data-v-7393e354=""><path fill="black" d="M1.99999 1.33333H0.666656C0.666656 0.6 1.26666 0 1.99999 0V1.33333ZM0.666656 4H1.99999V2.66667H0.666656V4ZM0.666656 6.66667H1.99999V5.33333H0.666656V6.66667ZM5.99999 12H7.33332V10.6667H5.99999V12ZM1.99999 9.33333H0.666656V8H1.99999V9.33333ZM1.99999 12V10.6667H0.666656C0.666656 11.4 1.26666 12 1.99999 12ZM8.66666 0H14C14.7333 0 15.3333 0.6 15.3333 1.33333V4H9.33332C8.96666 4 8.66666 3.7 8.66666 3.33333V0ZM14 9.33333H15.3333V8H14V9.33333ZM7.33332 1.33333H5.99999V0H7.33332V1.33333ZM3.33332 12H4.66666V10.6667H3.33332V12ZM4.66666 1.33333H3.33332V0H4.66666V1.33333ZM14 12C14.7333 12 15.3333 11.4 15.3333 10.6667H14V12ZM15.3333 6.66667H14V5.33333H15.3333V6.66667ZM8.66666 12H9.99999V10.6667H8.66666V12ZM12.6667 12H11.3333V10.6667H12.6667V12Z"></path></g></g></svg>