<svg data-v-7393e354="" xmlns="http://www.w3.org/2000/svg" width="18" height="24" viewBox="0 0 18 16" aria-labelledby="cardColors" role="presentation"><g data-v-7393e354="" fill="none"><g data-v-7393e354=""><path d="M7 5a1 1 0 100-2 1 1 0 000 2zM4 7a1 1 0 100-2 1 1 0 000 2zm6-1a1 1 0 100-2 1 1 0 000 2zm1 3a1 1 0 100-2 1 1 0 000 2zm-2 3a1 1 0 100-2 1 1 0 000 2z" fill="#000"></path><path d="M5.5 11.5a2 2 0 00-2-2H3A1.5 1.5 0 011.5 8v-.5a6 6 0 116 6H7A1.5 1.5 0 015.5 12v-.5z" stroke="#000" stroke-miterlimit="10"></path></g></g></svg>