<svg data-v-7393e354="" xmlns="http://www.w3.org/2000/svg" width="18" height="24" viewBox="0 0 18 16" aria-labelledby="alpha" role="presentation"><g data-v-7393e354="" fill="none"><path data-v-7393e354="" fill-rule="evenodd" clip-rule="evenodd" d="M9.78572 8.92858L10.2571 10.0714C10.3643 10.3285 10.6143 10.5 10.8928 10.5C11.3857 10.5 11.7142 9.99283 11.5214 9.54284L8.75003 3.13591C8.62147 2.83592 8.32862 2.64307 8.00006 2.64307C7.6715 2.64307 7.37865 2.83592 7.25008 3.13591L4.47875 9.54284C4.28589 9.99283 4.6216 10.5 5.11444 10.5C5.393 10.5 5.64299 10.3285 5.75013 10.0714L6.2144 8.92858H9.78572ZM3 12.6426C3 13.0354 3.32142 13.3568 3.71426 13.3568H12.2854C12.6783 13.3568 12.9997 13.0354 12.9997 12.6426C12.9997 12.2497 12.6783 11.9283 12.2854 11.9283H3.71426C3.32142 11.9283 3 12.2497 3 12.6426ZM9.33542 7.64271L7.99975 4.05712L6.66408 7.64271H9.33542Z" fill="black"></path></g></svg>