<svg data-v-7393e354="" data-v-9e15b12a="" xmlns="http://www.w3.org/2000/svg" width="18" height="10" viewBox="0 0 18 8" aria-labelledby="link-icon" role="presentation"><g data-v-7393e354="" fill="none"><path data-v-7393e354="" d="M3.66659 5.99999H5.66659C6.03325 5.99999 6.33325 6.29999 6.33325 6.66666C6.33325 7.03332 6.03325 7.33332 5.66659 7.33332H3.66659C1.82659 7.33332 0.333252 5.83999 0.333252 3.99999C0.333252 2.15999 1.82659 0.666656 3.66659 0.666656H5.66659C6.03325 0.666656 6.33325 0.966656 6.33325 1.33332C6.33325 1.69999 6.03325 1.99999 5.66659 1.99999H3.66659C2.56659 1.99999 1.66659 2.89999 1.66659 3.99999C1.66659 5.09999 2.56659 5.99999 3.66659 5.99999ZM10.3333 0.666656H8.33325C7.96659 0.666656 7.66659 0.966656 7.66659 1.33332C7.66659 1.69999 7.96659 1.99999 8.33325 1.99999H10.3333C11.4333 1.99999 12.3333 2.89999 12.3333 3.99999C12.3333 5.09999 11.4333 5.99999 10.3333 5.99999H8.33325C7.96659 5.99999 7.66659 6.29999 7.66659 6.66666C7.66659 7.03332 7.96659 7.33332 8.33325 7.33332H10.3333C12.1733 7.33332 13.6666 5.83999 13.6666 3.99999C13.6666 2.15999 12.1733 0.666656 10.3333 0.666656ZM4.33325 3.99999C4.33325 4.36666 4.63325 4.66666 4.99992 4.66666H8.99992C9.36659 4.66666 9.66659 4.36666 9.66659 3.99999C9.66659 3.63332 9.36659 3.33332 8.99992 3.33332H4.99992C4.63325 3.33332 4.33325 3.63332 4.33325 3.99999Z" fill="#007AFF"></path></g></svg>